<svg viewBox="0 0 1080 1080" xmlns="http://www.w3.org/2000/svg">
  <defs>
    <filter id="filter" x="-20%" y="-20%" width="140%" height="140%" filterUnits="objectBoundingBox" primitiveUnits="userSpaceOnUse" color-interpolation-filters="linearRGB">
      <feMorphology operator="dilate" radius="20 20" in="SourceAlpha" result="morphology"/>
      <feFlood flood-color="#ffffff" flood-opacity="1" result="flood"/>
      <feComposite in="flood" in2="morphology" operator="in" result="composite"/>
      <feMerge result="merge">
        <feMergeNode in="composite"/>
        <feMergeNode in="SourceGraphic"/>
      </feMerge>
    </filter>
  </defs>
  
  <g id="notion-avatar" filter="url(#filter)">
    <!-- Face -->
    <g id="notion-avatar-face" fill="#ffffff">
      <path d="M532,379 C664.54834,379 772,486.45166 772,619 C772,642.160109 783.234546,656.244677 777.453024,678.979248 C763.583554,733.517917 758.701879,941.343666 598,909 C539.618945,897.249936 461,880 433,858 C405,836 342.170039,758.772836 320.189513,718.584987 C317.498129,718.859681 314.765451,719 312,719 C267.81722,719 232,683.18278 232,639 C232,599.134956 261.158843,566.080325 299.312086,560.00055 C325.599297,455.979213 419.809919,379 532,379 Z" stroke="#000000" stroke-width="24"/>
    </g>
    
    <!-- Nose -->
    <g id="notion-avatar-nose">
      <path d="M692.893232,627.725033 C673.627879,639.855074 659.236623,647.263498 649.719463,649.950306 C640.202303,652.637114 625.722036,653.379465 606.278663,652.177361" stroke="#000000" stroke-width="16"/>
    </g>
    
    <!-- Mouth -->
    <g id="notion-avatar-mouth">
      <path d="M549,778 C580.121822,764.84962 604.121822,756.516287 621,753 C637.878178,749.483713 661.878178,747.817046 693,748" stroke="#000000" stroke-width="16"/>
    </g>
    
    <!-- Eyes -->
    <g id="notion-avatar-eyes">
      <path d="M570,516 C578.836556,516 586,526.745166 586,540 C586,553.254834 578.836556,564 570,564 C561.163444,564 554,553.254834 554,540 C554,526.745166 561.163444,516 570,516 Z M708,516 C716.836556,516 724,526.745166 724,540 C724,553.254834 716.836556,564 708,564 C699.163444,564 692,553.254834 692,540 C692,526.745166 699.163444,516 708,516 Z M568,527 C564.686292,527 562,529.686292 562,533 C562,536.313708 564.686292,539 568,539 C571.313708,539 574,536.313708 574,533 C574,529.686292 571.313708,527 568,527 Z M706,527 C702.686292,527 700,529.686292 700,533 C700,536.313708 702.686292,539 706,539 C709.313708,539 712,536.313708 712,533 C712,529.686292 709.313708,527 706,527 Z" fill="#000000"/>
    </g>
    
    <!-- Eyebrows -->
    <g id="notion-avatar-eyebrows">
      <g transform="translate(525.000000, 492.000000)" stroke="#000000" stroke-width="16">
        <path d="M0,16 C12.8888889,5.33333333 27.8888889,0 45,0 C62.1111111,0 77.1111111,5.33333333 90,16"/>
        <path d="M138,16 C150.888889,5.33333333 165.888889,0 183,0 C200.111111,0 215.111111,5.33333333 228,16"/>
      </g>
    </g>
    
    <!-- Glasses -->
    <g id="notion-avatar-glasses">
      <path d="M805.209 500.217C805.813 491.284 798.652 484 789.699 484H455C446.163 484 439 491.163 439 500V575.76C439 580.706 441.26 585.352 445.249 588.275C465.881 603.396 532.959 650 575.94 650C627.244 650 619.761 588.343 666.321 588.343C712.881 588.343 690.97 650 747.116 640.514C791.7 632.982 802.608 538.717 805.209 500.217Z" fill="white" stroke="black" stroke-width="12"/>
      <path d="M439 492.036L284 523V566.875L439 552V492.036Z" fill="black" stroke="black" stroke-width="12"/>
    </g>
    
    <!-- Hair -->
    <g id="notion-avatar-hair">
      <path d="M507.002 212C570.002 216 601.359 238.22 644.002 273C657.099 267.68 685.002 269 717.002 300C749.002 331 720.533 381.003 710.002 448C644.977 400.473 579.977 400.473 515.002 448C417.539 519.29 425.668 593 379.002 625L376.719 620.336L374.832 616.519C366.738 600.231 361.128 590.058 358.002 586C352.545 578.918 333.322 563.08 300.002 567C277.335 569.667 229.002 608 242.002 653C247.838 673.204 261.234 689.023 282.189 700.459C292.349 706.003 318.002 714 318.002 714C318.002 714 307.002 716 299.002 716C291.002 716 281.002 713 281.002 713C281.002 713 232.002 771 176.002 766C120.002 761 107.002 703 126.002 666C145.002 629 220.424 645.247 219.002 640C172.122 646.624 162.819 622.4 126.002 617C167.993 609.839 181.265 627.383 219.002 617C218.549 614.903 176.949 589.737 148.002 586C180.091 580.029 184.391 596.95 213.002 589C203.216 527.783 197.716 429.137 242.002 360C314.946 246.123 444.002 208 507.002 212Z" fill="black" stroke="black" stroke-width="12"/>
    </g>
  </g>
</svg>