<svg width="500" height="500" viewBox="0 0 500 500" fill="none" xmlns="http://www.w3.org/2000/svg">
<path d="M500 250C500 388.071 388.071 500 250 500C111.929 500 0 388.071 0 250C0 111.929 111.929 0 250 0C388.071 0 500 111.929 500 250Z" fill="#54BA3A"/>
<path d="M500 250C500 388.071 388.071 500 250 500C111.929 500 0 388.071 0 250C0 111.929 111.929 0 250 0C388.071 0 500 111.929 500 250Z" fill="#54BA3A"/>
<path d="M500 250C500 388.071 388.071 500 250 500C111.929 500 0 388.071 0 250C0 111.929 111.929 0 250 0C388.071 0 500 111.929 500 250Z" fill="#54BA3A"/>
<path d="M450 250C450 360.457 360.457 450 250 450C139.543 450 50 360.457 50 250C50 139.543 139.543 50 250 50C360.457 50 450 139.543 450 250Z" fill="#54BA3A"/>
<path d="M450 250C450 360.457 360.457 450 250 450C139.543 450 50 360.457 50 250C50 139.543 139.543 50 250 50C360.457 50 450 139.543 450 250Z" fill="#54BA3A"/>
<path d="M450 250C450 360.457 360.457 450 250 450C139.543 450 50 360.457 50 250C50 139.543 139.543 50 250 50C360.457 50 450 139.543 450 250Z" fill="#54BA3A"/>
<path d="M450 250C450 360.457 360.457 450 250 450C139.543 450 50 360.457 50 250C50 139.543 139.543 50 250 50C360.457 50 450 139.543 450 250Z" fill="#7AE061"/>
<circle cx="250" cy="242" r="150" fill="#88E991"/>
<circle cx="250" cy="242" r="100" fill="#9BF2A3"/>
<circle cx="250" cy="242" r="50" fill="#B4F4BA"/>
</svg>
